<?xml version="1.0" standalone="no"?>
<!DOCTYPE svg PUBLIC "-//W3C//DTD SVG 20010904//EN"
 "http://www.w3.org/TR/2001/REC-SVG-20010904/DTD/svg10.dtd">
<svg version="1.0" xmlns="http://www.w3.org/2000/svg"
 width="300.000000pt" height="232.000000pt" viewBox="0 0 300.000000 232.000000"
 preserveAspectRatio="xMidYMid meet">
<metadata>
Created by potrace 1.10, written by Peter Selinger 2001-2011
</metadata>
<g transform="translate(0.000000,232.000000) scale(0.100000,-0.100000)"
fill="#000000" stroke="none">
<path d="M1415 1633 c-104 -3 -117 -5 -95 -16 l25 -13 0 -179 c0 -176 0 -180
-22 -191 -18 -8 3 -10 98 -10 l121 1 19 50 c10 28 13 41 6 31 -35 -56 -54 -66
-122 -66 l-66 0 3 88 3 87 52 3 c44 3 53 0 67 -20 16 -22 16 -21 15 27 0 40
-2 46 -9 28 -8 -20 -16 -23 -70 -23 l-60 0 0 90 0 91 72 -3 c67 -3 73 -5 79
-28 6 -20 7 -17 8 18 1 23 0 41 -1 40 -2 -1 -57 -4 -123 -5z"/>
<path d="M2655 1633 c-104 -3 -117 -5 -95 -16 l25 -13 0 -179 c0 -175 -1 -180
-22 -190 -18 -9 3 -11 97 -11 l119 1 15 39 c9 22 14 41 12 44 -2 2 -7 -6 -11
-17 -10 -31 -57 -51 -120 -51 l-55 0 0 90 0 90 54 0 c42 0 58 -4 68 -19 12
-16 13 -13 13 26 0 34 -2 39 -9 23 -8 -17 -18 -20 -68 -20 l-58 0 0 90 0 91
72 -3 c67 -3 73 -5 79 -28 6 -20 7 -17 8 18 1 23 0 41 -1 40 -2 -1 -57 -4
-123 -5z"/>
<path d="M208 1618 c22 -11 22 -14 22 -193 0 -179 0 -182 -22 -192 -17 -7 5
-9 77 -5 55 2 112 11 126 18 58 29 63 122 8 168 -17 14 -35 26 -41 26 -6 0 1
11 16 25 26 24 35 71 20 110 -12 29 -65 48 -149 51 -63 2 -75 0 -57 -8z m146
-29 c21 -16 26 -29 26 -63 0 -48 -16 -68 -65 -81 -30 -8 -29 -8 14 -15 83 -13
119 -96 68 -156 -18 -21 -35 -28 -75 -32 l-52 -5 0 187 0 186 29 0 c15 0 40
-9 55 -21z"/>
<path d="M640 1503 c-102 -244 -110 -261 -139 -271 -21 -8 -14 -9 35 -8 50 0
58 3 45 12 -14 11 -14 17 5 70 l21 57 79 0 79 -1 22 -53 c23 -56 21 -76 -5
-81 -10 -2 14 -4 51 -4 60 0 65 1 45 12 -17 9 -42 58 -97 191 -41 98 -77 184
-81 191 -4 8 -29 -41 -60 -115z m85 -25 c17 -45 32 -86 33 -90 2 -4 -28 -8
-67 -8 -39 0 -71 3 -71 7 0 13 65 173 70 173 3 0 19 -37 35 -82z"/>
<path d="M950 1617 l25 -13 0 -179 c0 -175 -1 -180 -22 -190 -18 -9 -11 -11
42 -11 53 0 60 2 42 11 -21 10 -22 17 -25 193 l-2 182 44 0 c58 0 74 -7 91
-41 38 -72 1 -139 -77 -139 -42 -1 -42 -1 -18 -14 14 -8 47 -46 73 -84 54 -80
78 -98 133 -106 l39 -6 -32 15 c-19 8 -56 47 -89 90 -31 41 -62 75 -68 75 -6
1 3 7 19 14 50 22 70 52 70 106 0 84 -45 110 -190 110 -71 0 -77 -2 -55 -13z"/>
<path d="M1732 1609 c-64 -32 -96 -85 -100 -170 -7 -124 52 -199 173 -219 35
-6 108 -33 179 -67 92 -44 133 -58 178 -61 69 -5 133 15 169 54 l24 26 -38
-22 c-55 -32 -147 -38 -217 -12 -155 56 -210 78 -210 83 0 4 11 9 23 13 121
30 162 233 68 340 -50 57 -169 74 -249 35z m161 -3 c142 -59 133 -324 -13
-367 -115 -35 -210 50 -210 186 0 145 106 231 223 181z"/>
<path d="M2107 1620 c20 -8 21 -16 25 -157 3 -165 10 -186 71 -223 43 -27 131
-27 174 0 52 31 58 51 63 215 5 147 5 150 30 162 23 12 20 13 -35 12 -46 0
-55 -2 -37 -9 21 -9 22 -13 22 -153 0 -133 -2 -147 -23 -178 -32 -48 -91 -68
-143 -48 -22 8 -48 29 -61 48 -21 31 -23 45 -23 178 0 140 1 144 23 153 16 6
6 9 -43 9 -47 0 -59 -3 -43 -9z"/>
<path d="M843 993 c361 -2 953 -2 1315 0 361 1 65 2 -658 2 -723 0 -1019 -1
-657 -2z"/>
<path d="M799 851 c-69 -69 -8 -184 87 -166 50 9 48 21 -3 16 -53 -4 -80 15
-89 64 -14 75 63 137 110 89 14 -13 16 -13 16 -1 0 38 -82 36 -121 -2z"/>
<path d="M1083 865 c-55 -38 -50 -141 9 -171 61 -31 117 4 125 80 5 40 2 48
-25 76 -34 34 -74 39 -109 15z m72 -1 c26 -10 48 -62 40 -100 -7 -42 -29 -64
-62 -64 -43 0 -63 26 -63 82 0 67 35 101 85 82z"/>
<path d="M1365 858 c-30 -26 -42 -80 -26 -120 14 -36 64 -62 107 -53 50 9 48
21 -3 16 -71 -5 -106 44 -83 115 17 52 71 72 104 38 14 -13 16 -13 16 -1 0 34
-78 37 -115 5z"/>
<path d="M1618 789 c3 -65 0 -94 -9 -99 -7 -5 -3 -7 12 -7 24 2 24 4 24 99 0
80 -3 98 -15 98 -12 0 -14 -15 -12 -91z"/>
<path d="M1775 782 c0 -80 3 -98 15 -98 12 0 14 13 10 78 -3 43 -3 78 0 78 3
0 30 -37 60 -81 l55 -81 3 93 c2 59 7 96 15 101 8 5 5 8 -8 8 -19 0 -20 -5
-17 -77 4 -87 6 -87 -62 10 -26 37 -53 67 -59 67 -8 0 -12 -30 -12 -98z"/>
<path d="M2114 843 c-8 -21 -25 -60 -36 -88 -11 -27 -24 -55 -28 -60 -6 -7 -2
-11 10 -11 10 0 17 3 14 7 -2 4 0 17 4 30 7 18 16 22 52 22 43 0 67 -19 57
-46 -3 -7 5 -12 17 -12 21 0 20 3 -16 88 -21 48 -38 92 -38 97 0 23 -21 7 -36
-27z m34 -81 c-10 -2 -26 -2 -36 0 -18 3 -18 5 1 48 l20 44 16 -44 c16 -43 16
-45 -1 -48z"/>
</g>
</svg>
